HIERARCHY
ROOT Hips
{
	OFFSET 0.000000 0.000000 0.000000
	CHANNELS 6 Xposition Yposition Zposition Xrotation Yrotation Zrotation
	JOINT Chest
	{
		OFFSET 0.000000 9.581000 -0.001100
		CHANNELS 3 Xrotation Yrotation Zrotation
		JOINT Chest2
		{
			OFFSET 0.000000 9.561100 0.002200
			CHANNELS 3 Xrotation Yrotation Zrotation
			JOINT Chest3
			{
				OFFSET 0.000000 9.521100 0.000000
				CHANNELS 3 Xrotation Yrotation Zrotation
				JOINT Chest4
				{
					OFFSET 0.000000 9.511400 0.000000
					CHANNELS 3 Xrotation Yrotation Zrotation
					JOINT Neck
					{
						OFFSET 0.000000 14.375100 0.000000
						CHANNELS 3 Xrotation Yrotation Zrotation
						JOINT Head
						{
							OFFSET 0.000000 8.901200 0.004600
							CHANNELS 3 Xrotation Yrotation Zrotation
							End Site
							{
								OFFSET 0.000000 0.000000 0.000000
							}
						}
					}
					JOINT RightCollar
					{
						OFFSET -2.920100 9.518800 0.000000
						CHANNELS 3 Xrotation Yrotation Zrotation
						JOINT RightShoulder
						{
							OFFSET -13.664500 0.000000 0.000000
							CHANNELS 3 Xrotation Yrotation Zrotation
							JOINT RightElbow
							{
								OFFSET 0.000000 -29.999201 0.000000
								CHANNELS 3 Xrotation Yrotation Zrotation
								JOINT RightWrist
								{
									OFFSET 0.000000 -24.253599 0.000000
									CHANNELS 3 Xrotation Yrotation Zrotation
									End Site
									{
										OFFSET 0.000000 0.000000 0.000000
									}
								}
							}
						}
					}
					JOINT LeftCollar
					{
						OFFSET 2.920100 9.518800 0.000000
						CHANNELS 3 Xrotation Yrotation Zrotation
						JOINT LeftShoulder
						{
							OFFSET 13.664500 0.000000 0.000000
							CHANNELS 3 Xrotation Yrotation Zrotation
							JOINT LeftElbow
							{
								OFFSET 0.000000 -29.999201 0.000000
								CHANNELS 3 Xrotation Yrotation Zrotation
								JOINT LeftWrist
								{
									OFFSET 0.000000 -24.253599 0.000000
									CHANNELS 3 Xrotation Yrotation Zrotation
									End Site
									{
										OFFSET 0.000000 0.000000 0.000000
									}
								}
							}
						}
					}
				}
			}
		}
	}
	JOINT RightHip
	{
		OFFSET -7.797300 0.005300 0.000500
		CHANNELS 3 Xrotation Yrotation Zrotation
		JOINT RightKnee
		{
			OFFSET 0.000000 -40.663399 -0.000500
			CHANNELS 3 Xrotation Yrotation Zrotation
			JOINT RightAnkle
			{
				OFFSET 0.000000 -39.523701 -0.000900
				CHANNELS 3 Xrotation Yrotation Zrotation
				JOINT RightToe
				{
					OFFSET 0.000000 -6.418000 14.485300
					CHANNELS 3 Xrotation Yrotation Zrotation
					End Site
					{
						OFFSET 0.000000 0.000000 0.000000
					}
				}
			}
		}
	}
	JOINT LeftHip
	{
		OFFSET 7.797300 0.005300 0.000500
		CHANNELS 3 Xrotation Yrotation Zrotation
		JOINT LeftKnee
		{
			OFFSET 0.000000 -40.663399 -0.000500
			CHANNELS 3 Xrotation Yrotation Zrotation
			JOINT LeftAnkle
			{
				OFFSET 0.000000 -39.523701 -0.000900
				CHANNELS 3 Xrotation Yrotation Zrotation
				JOINT LeftToe
				{
					OFFSET 0.000000 -6.418000 14.485300
					CHANNELS 3 Xrotation Yrotation Zrotation
					End Site
					{
						OFFSET 0.000000 0.000000 0.000000
					}
				}
			}
		}
	}
}
MOTION
Frames: 8
Frame Time: 0.032
0.0 0.0 0.0 -144.342961 -0.764662 176.008210 20.751312 4.342359 1.735432 6.312969 -0.210566 1.285119 -0.743554 0.531820 0.400949 19.153239 1.031688 0.926285 13.753093 0.149398 -1.762859 -4.973306 8.606029 3.124205 3.154875 -4.103609 -4.336311 -23.093670 12.743120 -16.621496 -86.493192 17.485619 22.945606 -6.667160 -73.815644 -40.368928 3.287379 -0.410800 2.555509 -13.969868 7.172094 20.720415 -70.349077 17.218547 -23.544290 -22.747759 10.122591 16.730446 -38.852589 -6.338054 -0.009793 74.856510 -1.758280 -2.011613 1.293996 7.201932 5.103015 -1.928323 -0.104756 0.077730 -36.132240 -0.904695 1.215924 83.726781 4.655988 -3.875565 -10.841307 1.459445 -0.152288 -0.092597 -0.428054 -0.354956
0.0 0.0 0.0 -144.342251 -0.760544 175.982761 20.721199 4.304618 1.742414 6.341647 -0.280972 1.242368 -0.778023 0.478648 0.360146 19.138955 0.971330 0.896215 13.736322 0.101193 -1.756734 -4.978835 8.561983 3.153463 3.163835 -4.179823 -4.319688 -23.134076 12.691745 -16.634478 -86.486219 17.480657 22.893573 -6.749880 -73.856038 -40.527378 3.274845 -0.457363 2.519235 -13.935401 7.206371 20.743327 -70.361337 17.180593 -23.551973 -22.798987 10.097414 16.814925 -38.842340 -6.406972 -0.018279 74.841190 -1.792892 -2.016848 1.315965 7.152357 5.094224 -1.924191 -0.149792 0.088215 -36.117832 -0.953882 1.182250 83.734376 4.616843 -3.875399 -10.844750 1.416116 -0.170019 -0.087838 -0.476054 -0.361109
0.0 0.0 0.0 -144.319315 -0.748618 176.007923 20.726370 4.333826 1.744388 6.326187 -0.271713 1.302663 -0.807835 0.500579 0.416094 19.119077 0.996312 0.944441 13.728389 0.107320 -1.768494 -4.989842 8.593353 3.178750 3.137659 -4.185611 -4.354973 -23.140606 12.703764 -16.615272 -86.490781 17.471158 22.923679 -6.655144 -73.903555 -40.477494 3.279451 -0.429208 2.541474 -13.955064 7.259208 20.791523 -70.354596 17.213825 -23.577535 -22.817514 10.118317 16.842048 -38.850195 -6.386671 -0.036117 74.818015 -1.781018 -2.027456 1.323338 7.174423 5.078730 -1.930590 -0.132518 0.084789 -36.119239 -0.943247 1.216135 83.726201 4.608286 -3.884753 -10.859166 1.436093 -0.116288 -0.093004 -0.457557 -0.341725
0.0 0.0 0.0 -144.267898 -0.737608 176.028728 20.723458 4.328746 1.700538 6.378993 -0.280388 1.292252 -0.777029 0.501305 0.408626 19.149393 0.998481 0.936591 13.750957 0.097006 -1.807401 -4.950987 8.590633 3.127868 3.172397 -4.202795 -4.400935 -23.124587 12.685419 -16.692000 -86.494217 17.460409 22.903456 -6.620342 -73.918930 -40.450692 3.323916 -0.422120 2.530491 -13.918964 7.320048 20.861375 -70.344207 17.215731 -23.636256 -22.817055 10.142076 16.875222 -38.816395 -6.399327 -0.081668 74.819682 -1.787448 -2.074442 1.374212 7.171504 5.023784 -1.893425 -0.134312 0.044991 -36.086645 -0.951602 1.195810 83.739185 4.602302 -3.929491 -10.827121 1.435342 -0.117147 -0.056913 -0.461298 -0.362873
0.0 0.0 0.0 -144.254183 -0.740521 176.025491 20.704518 4.334876 1.678367 6.360211 -0.300209 1.281307 -0.804593 0.491649 0.412007 19.130206 0.987126 0.924804 13.735231 0.091246 -1.815114 -4.957805 8.584868 3.117176 3.150968 -4.249137 -4.406662 -23.148932 12.687821 -16.730482 -86.563837 17.513027 22.919287 -6.557766 -73.928123 -40.405487 3.348706 -0.412925 2.555744 -13.960763 7.359753 20.953175 -70.363147 17.237024 -23.627631 -22.872449 10.180365 16.930519 -38.812775 -6.411645 -0.082746 74.783646 -1.784901 -2.072992 1.375580 7.179817 5.025803 -1.902794 -0.138095 0.043528 -36.085150 -0.946172 1.196597 83.717396 4.589134 -3.929852 -10.836788 1.437786 -0.112852 -0.063788 -0.465041 -0.362459
0.0 0.0 0.0 -144.262939 -0.750488 176.004508 20.671568 4.341371 1.682274 6.288981 -0.331480 1.260761 -0.827238 0.463826 0.401725 19.094275 0.961990 0.899601 13.710364 0.072357 -1.807385 -4.979367 8.566090 3.106196 3.051227 -4.319523 -4.428945 -23.176802 12.673004 -16.773208 -86.696991 17.568609 22.963035 -6.315994 -73.929011 -40.125746 3.370309 -0.404442 2.578059 -14.086795 7.375852 21.073920 -70.432036 17.254844 -23.558736 -22.947264 10.197765 17.014008 -38.801038 -6.418803 -0.066684 74.747637 -1.788428 -2.034789 1.353407 7.192472 5.061207 -1.931048 -0.151290 0.059777 -36.101624 -0.919076 1.202586 83.687385 4.562294 -3.895212 -10.859876 1.439308 -0.121931 -0.087655 -0.474701 -0.356086
0.0 0.0 0.0 -144.153178 -0.736642 176.016762 20.750692 4.377678 1.651861 6.394833 -0.340479 1.258520 -0.734530 0.464673 0.417123 19.173932 0.976711 0.904735 13.775218 0.077937 -1.819096 -4.878968 8.553283 3.077450 3.145747 -4.368598 -4.430808 -23.114286 12.640684 -16.847486 -86.748696 17.579257 22.958883 -5.971736 -73.880640 -39.816072 3.477544 -0.396165 2.611845 -14.039914 7.453740 21.230002 -70.435014 17.236411 -23.604459 -22.908378 10.266470 17.093836 -38.700408 -6.469202 -0.082239 74.759692 -1.727744 -2.074767 1.456658 7.203315 5.046963 -1.838453 -0.148942 0.059733 -36.007559 -0.944111 1.198512 83.728680 4.613146 -3.945264 -10.763891 1.436916 -0.101389 0.008469 -0.471970 -0.343333
0.0 0.0 0.0 -144.150760 -0.741029 176.013469 20.696202 4.394529 1.631715 6.364395 -0.336578 1.238976 -0.776824 0.461489 0.411374 19.125549 0.974470 0.881428 13.733425 0.073541 -1.830240 -4.908609 8.528688 3.058537 3.077655 -4.444549 -4.464688 -23.164597 12.630984 -16.928764 -86.932551 17.715504 23.005831 -5.536036 -73.740853 -39.412329 3.491851 -0.372642 2.624089 -14.161742 7.573339 21.404780 -70.504518 17.313078 -23.561648 -22.997923 10.324845 17.154148 -38.692301 -6.464123 -0.082647 74.690666 -1.719450 -2.060073 1.450637 7.241002 5.050721 -1.875062 -0.147210 0.053462 -36.002477 -0.897916 1.196851 83.688109 4.611580 -3.934134 -10.785274 1.439209 -0.114430 -0.020718 -0.470220 -0.351439
